# xmcd
#
# Track frame offsets: 
#        150
#        10351
#        17439
#        25940
#        37275
#        53466
#        62450
#        75944
#        88142
#        97872
#        109216
#        118559
#        132666
#        143115
#        153444
#        163704
#        173001
#        183313
#        192474
#        205121
#        215552
#        226840
#        237400
#        247621
#        258857
#
# Disc length: 3599 seconds
#
# Revision: 0
# Processed by: cddbd v1.5.2PL0 Copyright (c) Steve Scherf et al.
# Submitted via: ExactAudioCopyFreeDBPlugin 1.0
#
DISCID=420e0d19
DTITLE=Johnny Cash and June Carter - Country Lovers [CD 2)
DYEAR=1900
DGENRE=Country
TTITLE0=Crocodile Tears
TTITLE1=Casey Jones (Live)
TTITLE2=The Rebel Johnny Yuma
TTITLE3=Root, Hog Or Die
TTITLE4=City Of New Orleans (Live)
TTITLE5=Honky Tonk Girl
TTITLE6=I Said My Nightshird And Put On My Prayers
TTITLE7=Folsom Prison Blues (Live)
TTITLE8=I Clouldn´t Keep From Crying
TTITLE9=The Thing
TTITLE10=I Feel Better All Over
TTITLE11=The Heel
TTITLE12=If I Were A Carpenter (Live)
TTITLE13=Busted
TTITLE14=Knock Kneed Suzy
TTITLE15=Down The Street To 301
TTITLE16=Strange, Strange Woman
TTITLE17=I Will Miss You When You Go
TTITLE18=Jackson (Live)
TTITLE19=WeddingOf Hillbilly Lilli Marlene
TTITLE20=Oh Lonesome Me
TTITLE21=Eight More Miles To Louisville
TTITLE22=Straight A´s In LOve
TTITLE23=Bashful Rascal
TTITLE24=I Love You Because
EXTD=
EXTT0=
EXTT1=
EXTT2=
EXTT3=
EXTT4=
EXTT5=
EXTT6=
EXTT7=
EXTT8=
EXTT9=
EXTT10=
EXTT11=
EXTT12=
EXTT13=
EXTT14=
EXTT15=
EXTT16=
EXTT17=
EXTT18=
EXTT19=
EXTT20=
EXTT21=
EXTT22=
EXTT23=
EXTT24=
PLAYORDER=
